<svg xmlns="http://www.w3.org/2000/svg" xmlns:xlink="http://www.w3.org/1999/xlink" xml:space="preserve" version="1.1" style="shape-rendering:geometricPrecision;text-rendering:geometricPrecision;image-rendering:optimizeQuality;" viewBox="0 0 100 100" x="0px" y="0px" fill-rule="evenodd" clip-rule="evenodd"><defs><style type="text/css">
   
    .fil0 {fill:black}
   
  </style></defs><g><path class="fil0" d="M1021 56l0 -11 23 0 0 11 9 0 0 23 -9 0 0 9 9 0 0 24 -9 0 0 11 -23 0 0 -11 -11 0 0 11 -24 0 0 -11 -12 0 0 -24 12 0 0 -9 -12 0 0 -23 12 0 0 -11 24 0 0 11 11 0zm-11 23l0 9 11 0 0 -9 -11 0z"/><path class="fil0" d="M38 39l-4 20 28 0 4 -20 -28 0zm6 -33l-4 22 28 0 4 -22 3 0 -4 22c6,0 12,-1 18,-1 7,0 -1,11 -1,12 -2,1 -16,0 -19,0l-3 20c7,0 15,0 23,0 7,0 -1,11 -2,11 -2,1 -20,1 -23,1l-4 23 -4 0 4 -23 -28 0 -4 23 -4 0 4 -23c-2,0 -16,0 -18,0 -5,-1 0,-12 8,-12l12 0 4 -20c-5,0 -20,1 -24,1 -5,-1 1,-12 8,-12l18 0 4 -22 4 0z"/></g>
</svg>
